<svg id="Warstwa_1" enable-background="new 0 0 283.46 283.46" height="283.46" viewBox="0 0 283.46 283.46" width="283.46" xmlns="http://www.w3.org/2000/svg" xmlns:xlink="http://www.w3.org/1999/xlink"><clipPath id="SVGID_2_"><path id="SVGID_1_" d="m141.729 6.231c74.837 0 135.505 60.667 135.505 135.51 0 74.836-60.668 135.503-135.505 135.503-74.836 0-135.504-60.667-135.504-135.503 0-74.842 60.668-135.51 135.504-135.51z"/></clipPath><g><path d="m141.729 2.835c76.716 0 138.901 62.191 138.901 138.906 0 76.704-62.186 138.888-138.901 138.888-76.709 0-138.895-62.185-138.895-138.888 0-76.715 62.186-138.906 138.895-138.906z" fill="#d6d4d1"/><g><g><g clip-path="url(#SVGID_2_)"><g><path d="m-61.469 185.742h406.559v91.48h-406.559z" fill="#11892e"/><path d="m-61.469 6.173h406.559v91.474h-406.559z" fill="#f2963b"/><path d="m-61.492 97.67h406.582v88.095h-406.582z" fill="#fff"/><path d="m178.75 136.863c-2.696-20.413-21.405-34.781-41.807-32.09-20.431 2.696-34.78 21.405-32.107 41.8 2.69 20.401 21.405 34.758 41.83 32.097 20.414-2.709 34.769-21.406 32.084-41.807zm-4.411 7.259c-1.004-.093-1.938.607-2.055 1.611-.14 1.004.537 1.914 1.541 2.077-.141.771-.327 1.529-.514 2.265l-17.04-5.579-8.089-1.588c.059-.233.105-.467.129-.7l8.17.583 17.927-.98c.001.771-.045 1.541-.069 2.311zm-65.056-4.808c1.004.093 1.914-.607 2.055-1.611.146-1.004-.561-1.914-1.564-2.078.146-.77.321-1.517.514-2.27l17.046 5.573 8.094 1.587c-.046.222-.093.443-.117.711l-8.193-.583-17.904.98c-.001-.769.022-1.539.069-2.309zm.49 8.496c1.004-.163 1.71-1.073 1.564-2.077-.141-1.004-1.051-1.716-2.055-1.611-.046-.77-.07-1.54-.07-2.31l17.904.98 8.217-.583c.023.117 0 .233.023.374 0 .116.046.21.07.314l-8.094 1.588-17.046 5.591c-.192-.748-.344-1.495-.513-2.266zm46.709-7.165-8.193.583c-.023-.116 0-.233-.023-.361 0-.128-.059-.245-.082-.327l8.089-1.587 17.04-5.567c.187.747.373 1.506.514 2.264-1.004.164-1.681 1.074-1.541 2.078.117 1.004 1.027 1.704 2.031 1.61.047.771.093 1.541.093 2.312zm16.106-9.665c.233.729.49 1.459.7 2.212l-17.577 3.706-7.738 2.661c-.104-.222-.222-.409-.303-.654l7.399-3.606 15.009-9.792c.397.671.759 1.336 1.109 2.042-.911.42-1.354 1.482-.957 2.416.351.916 1.425 1.371 2.358 1.015zm-6.395-7.959c.606.788 1.75.945 2.544.368.467.636.863 1.284 1.249 1.949l-15.99 8.118-6.815 4.598c-.141-.187-.245-.397-.409-.583l6.187-5.392 11.975-13.346c.536.548 1.073 1.109 1.587 1.71-.818.628-.936 1.766-.328 2.578zm-5.673-5.69c.794.624 1.938.467 2.567-.298.584.502 1.145 1.027 1.704 1.576l-13.34 11.975-5.416 6.209c-.198-.164-.35-.292-.56-.444l4.621-6.816 8.112-15.99c.653.379 1.295.799 1.949 1.243-.594.8-.454 1.938.363 2.545zm-6.956-4.015c.934.385 1.984-.047 2.404-.957.7.338 1.4.706 2.055 1.085l-9.805 15.027-3.595 7.365c-.21-.094-.443-.164-.677-.233l2.708-7.791 3.665-17.542c.758.204 1.493.432 2.252.688-.384.922.059 1.973.993 2.358zm-9.36-4.108c-.094.986.606 1.897 1.61 2.031 1.004.128 1.914-.554 2.078-1.558.77.158 1.517.327 2.264.531l-5.578 17.04-1.564 8.094c-.257-.047-.467-.117-.724-.14l.583-8.193-.979-17.904c.769-.001 1.563.035 2.31.099zm-6.419 2.03c1.003-.134 1.739-1.044 1.634-2.031.759-.064 1.541-.087 2.287-.099l-.957 17.904.56 8.217c-.116.023-.233 0-.35.023-.117 0-.245.07-.362.094l-1.564-8.094-5.584-17.058c.752-.187 1.488-.356 2.258-.514.163 1.004 1.074 1.687 2.078 1.558zm-7.75 2.078c.951-.385 1.371-1.447 1.027-2.393.729-.251 1.471-.467 2.224-.666l3.682 17.542 2.673 7.756c-.222.093-.42.21-.63.304l-3.629-7.4-9.769-15.039c.653-.368 1.325-.741 2.031-1.074.406.923 1.457 1.355 2.391.97zm-6.933 4.015c.788-.607.957-1.745.344-2.568.659-.432 1.278-.84 1.984-1.231l8.077 15.99 4.627 6.828c-.187.14-.396.28-.583.42l-5.392-6.197-13.352-11.975c.589-.548 1.126-1.074 1.733-1.576.601.776 1.745.933 2.562.309zm-5.666 5.69c.607-.799.467-1.938-.298-2.579.467-.59 1.027-1.15 1.564-1.71l11.975 13.346 6.221 5.416c-.152.163-.304.374-.444.56l-6.816-4.598-15.99-8.118c.368-.666.788-1.325 1.243-1.961.765.589 1.932.432 2.545-.356zm-4.039 6.944c.391-.934-.023-1.996-.957-2.416.345-.694.706-1.371 1.097-2.042l15.015 9.792 7.388 3.606c-.093.222-.187.432-.245.688l-7.791-2.696-17.56-3.694c.216-.753.443-1.482.683-2.224.923.357 1.985-.098 2.37-1.014zm-2.393 22.491c-.239-.724-.467-1.471-.683-2.218l17.56-3.7 7.767-2.661c.07.222.199.409.269.631l-7.394 3.63-15.009 9.792c-.391-.688-.752-1.343-1.097-2.054.928-.397 1.348-1.471.957-2.404-.362-.924-1.424-1.39-2.37-1.016zm6.432 7.959c-.613-.793-1.768-.934-2.568-.35-.443-.653-.864-1.307-1.243-1.961l15.99-8.123 6.816-4.599c.14.187.268.397.443.584l-6.221 5.392-11.975 13.329c-.537-.537-1.074-1.098-1.563-1.681.787-.654.916-1.774.321-2.591zm5.666 5.696c-.817-.642-1.961-.467-2.574.292-.583-.514-1.144-1.027-1.733-1.588l13.352-11.975 5.416-6.221c.199.163.362.304.56.42l-4.627 6.84-8.077 15.989c-.683-.373-1.325-.794-1.984-1.237.624-.769.466-1.914-.333-2.52zm6.933 3.991c-.934-.373-1.984.047-2.404.98-.706-.35-1.377-.735-2.031-1.097l9.781-15.021 3.618-7.388c.21.117.444.187.654.245l-2.685 7.784-3.7 17.555c-.753-.211-1.465-.409-2.217-.678.355-.933-.089-1.982-1.016-2.38zm9.383 4.132c.093-1.004-.63-1.914-1.634-2.03-1.004-.141-1.915.56-2.089 1.54-.759-.14-1.517-.327-2.258-.514l5.584-17.04 1.564-8.1c.257.047.49.116.724.14l-.56 8.17.957 17.928c-.77 0-1.54-.024-2.288-.094zm6.396-2.03c-1.004.116-1.704 1.026-1.61 2.03-.771.047-1.541.07-2.311.07l.979-17.904-.583-8.216c.116 0 .257.022.351 0 .116-.023.256-.07.373-.094l1.564 8.1 5.578 17.04c-.747.187-1.494.374-2.264.514-.163-.981-1.073-1.681-2.077-1.54zm7.75-2.102c-.934.397-1.377 1.447-1.004 2.404-.747.245-1.494.467-2.24.678l-3.677-17.555-2.696-7.749c.222-.094.42-.21.665-.327l3.595 7.423 9.805 15.01c-.666.396-1.354.759-2.055 1.097-.409-.934-1.459-1.354-2.393-.981zm6.956-3.991c-.817.606-.957 1.739-.373 2.567-.654.42-1.284.841-1.961 1.214l-8.101-15.989-4.621-6.84c.21-.116.42-.257.583-.396l5.393 6.197 13.352 11.975c-.56.561-1.12 1.074-1.716 1.588-.618-.783-1.762-.946-2.556-.316zm5.673-5.696c-.607.817-.467 1.938.303 2.568-.49.606-1.05 1.167-1.587 1.704l-11.975-13.317-6.222-5.415c.152-.198.304-.362.444-.561l6.815 4.599 15.99 8.111c-.374.677-.782 1.319-1.249 1.984-.793-.607-1.913-.466-2.519.327zm4.015-6.933c-.397.935.047 1.984.957 2.404-.351.7-.7 1.378-1.098 2.055l-15.009-9.804-7.377-3.595c.094-.21.164-.444.258-.678l7.772 2.685 17.554 3.688c-.198.759-.443 1.494-.688 2.229-.922-.361-1.996.082-2.369 1.016z" fill="#21296f"/></g></g></g></g></g></svg>