<svg id="Layer_1" data-name="Layer 1" xmlns="http://www.w3.org/2000/svg" viewBox="0 0 207.68 195.45"><defs><style>.cls-1{fill:#fff;}.cls-2{fill:#f7b132;}.cls-3{fill:none;}</style></defs><path class="cls-1" d="M190.25,119.35a12,12,0,0,0-7.32-13.12,28.46,28.46,0,0,0-21.18.53c-3.74,1.87-6.26,4.68-7,8.92-.9,5.18,1.57,9.83,6.59,11.17,4,1.06,8.14,1.37,12.22,2,2.66.41,5.33.74,8,1.28a3.94,3.94,0,0,1,3.45,3.15,5.13,5.13,0,0,1-1.69,5.34,8.28,8.28,0,0,1-2.41,1.38,23.63,23.63,0,0,1-14.36.3,6.71,6.71,0,0,1-5-5.74,14.81,14.81,0,0,0-.71-2.14c-1.05,0-2,0-2.9,0s-2,.13-2.93.2c-.63,6.44,2.73,11.59,8.93,13.49a31.53,31.53,0,0,0,20.15-.48,14.62,14.62,0,0,0,4.29-2.44c3.54-2.89,4.6-6.76,3.79-11.17-.77-4.21-3.66-6.33-7.58-7.24-2.22-.51-4.47-.84-6.72-1.19-4.19-.64-8.44-1-12.57-1.92-3.4-.75-4.52-5-2.24-7.66a7,7,0,0,1,2.46-1.84,19,19,0,0,1,13.65-.54,6.66,6.66,0,0,1,4.53,5.12c.22.88.42,1.76.66,2.81,1.66,0,3.1,0,4.54,0a10.29,10.29,0,0,0,1.42-.22"/><path class="cls-1" d="M100.16,77.77c-1.18-.77-2.1-1.42-3.07-2-2.39-1.37-4.91-2.27-7.71-1.73-7.37,1.42-10,10-5,16.12,6,7.27,15.81,8.07,22.89,1.87A20.88,20.88,0,0,0,109,90.31a31.84,31.84,0,0,0,8.65-20.8c.15-5.17-1.15-9.9-5.62-13.16-5-3.65-13.69-3.79-18.85-.37-4.09,2.71-6.44,7.88-5.52,12.26h5.44c.25-.93.47-1.61.62-2.31a7,7,0,0,1,6.06-5.85c3.59-.58,7.09-.43,9.74,2.58a6.12,6.12,0,0,1,1.27,2.45,15.34,15.34,0,0,1,.57,4.29,25.47,25.47,0,0,1-8.09,17.65C99.17,91,95.12,91.11,90,86.89c-2-1.68-2.42-4-1.23-5.5s3.12-1.53,5.31,0a34.91,34.91,0,0,1,3.66,3.34c1.46,1.38,2.87,1.71,4.11.5,3-2.91,4.94-6.51,6.68-10.59-3.69-.47-7-1.3-8.36,3.12"/><path class="cls-1" d="M128.29,95.14a11.46,11.46,0,0,0,7.25-.11V60.31h15V53.86H135.47c0-1.59,0-2.72,0-3.86.22-5,2.85-7.61,7.84-7.64,1.44,0,2.88.23,4.32.36l2.55.21c0-1.52,0-2.84,0-4.16a2,2,0,0,0-1.92-2.34,52.66,52.66,0,0,0-5.85-.58c-8.68,0-13.92,5.2-14.11,13.89,0,1.31,0,2.62,0,4l-6.65.35v6.09l6.62.34Z"/><path class="cls-1" d="M114.92,105.4c-.7,4.65-.46,39,.25,41.15h6.6V127.66a21.61,21.61,0,0,1,2-9.34c1.89-4,4.92-6.65,9.44-7.18,6.85-.81,10.18,2.67,10.66,8.32.17,2,0,3.93.08,5.9,0,.89.08,1.79.13,2.78h6.06a35.73,35.73,0,0,0,.32-11.28c-1-6.68-4.65-10.83-10.77-12-7-1.37-13,1.11-16.29,6.81-.45.77-.87,1.56-1.29,2.34l-.43-.1V105.4Z"/><path class="cls-1" d="M32.8,76.52c1.2-.06,2.21-.15,3.22-.15s2,.08,3.22.14c.16.95.31,1.73.42,2.52.71,5.38,3.54,8.75,8.75,10.08a27.85,27.85,0,0,0,15.64-.52c4.32-1.39,6.51-4.36,6.54-8.44,0-3.45-1.24-5.6-4.56-6.56a93.57,93.57,0,0,0-9.73-2c-3.88-.68-7.77-1.24-11.65-1.91a19.78,19.78,0,0,1-3-.82c-7.49-2.45-10.95-9.12-8.73-16.72a15.11,15.11,0,0,1,5.14-7.61,21.83,21.83,0,0,1,9.52-4.34,36,36,0,0,1,14.51,0c9.5,1.88,14.84,9.15,13.95,19.27H69.54c-.12-.75-.27-1.53-.37-2.31-.84-6.33-3.92-9.73-10.21-10.79A21.92,21.92,0,0,0,45.29,48c-3,1.51-5.17,3.8-5.36,7.42s1.29,6.27,5,7.26c3.89,1,7.89,1.65,11.85,2.4,3.77.72,7.57,1.23,11.3,2.08,5.13,1.18,8.9,4,9.85,9.53,1,5.82-.36,11-5.09,14.79a19.26,19.26,0,0,1-6,3.17,36.78,36.78,0,0,1-21.44.5c-8.5-2.32-13.47-9.68-12.56-18.66"/><path class="cls-1" d="M68.05,140v6.3c-2.78.72-34.26.73-37.15,0V104.9c2.4-.73,33.16-.83,36.42-.09v6.06c-1.2.11-2.39.31-3.57.31-7.15,0-14.3,0-21.45,0-1.21,0-2.42.12-3.8.2V125H61.74v5.6c-7.59.31-15.21,0-23.22.19a58.73,58.73,0,0,0-.13,9c9.92.34,19.7-.08,29.66.24"/><path class="cls-1" d="M190.25,119.35a10.29,10.29,0,0,1-1.42.22c-1.44,0-2.88,0-4.54,0-.24-1-.44-1.93-.66-2.81a6.66,6.66,0,0,0-4.53-5.12,19,19,0,0,0-13.65.54A7,7,0,0,0,163,114c-2.28,2.67-1.16,6.91,2.24,7.66,4.13.91,8.38,1.28,12.57,1.92,2.25.35,4.5.68,6.72,1.19,3.92.91,6.81,3,7.58,7.24.81,4.41-.25,8.28-3.79,11.17a14.62,14.62,0,0,1-4.29,2.44,31.53,31.53,0,0,1-20.15.48c-6.2-1.9-9.56-7-8.93-13.49.94-.07,1.94-.16,2.93-.2s1.85,0,2.9,0a14.81,14.81,0,0,1,.71,2.14,6.71,6.71,0,0,0,5,5.74,23.63,23.63,0,0,0,14.36-.3,8.28,8.28,0,0,0,2.41-1.38,5.13,5.13,0,0,0,1.69-5.34,3.94,3.94,0,0,0-3.45-3.15c-2.63-.54-5.3-.87-8-1.28-4.08-.64-8.25-1-12.22-2-5-1.34-7.49-6-6.59-11.17.73-4.24,3.25-7.05,7-8.92a28.46,28.46,0,0,1,21.18-.53,12,12,0,0,1,7.32,13.12"/><path class="cls-2" d="M100.16,77.77c1.41-4.42,4.67-3.59,8.36-3.12-1.74,4.08-3.69,7.68-6.68,10.59-1.24,1.21-2.65.88-4.11-.5a34.91,34.91,0,0,0-3.66-3.34c-2.19-1.54-4.19-1.44-5.31,0S88,85.21,90,86.89c5.13,4.22,9.18,4.07,13.3.16a25.47,25.47,0,0,0,8.09-17.65,15.34,15.34,0,0,0-.57-4.29,6.12,6.12,0,0,0-1.27-2.45c-2.65-3-6.15-3.16-9.74-2.58a7,7,0,0,0-6.06,5.85c-.15.7-.37,1.38-.62,2.31H87.68c-.92-4.38,1.43-9.55,5.52-12.26,5.16-3.42,13.85-3.28,18.85.37,4.47,3.26,5.77,8,5.62,13.16A31.84,31.84,0,0,1,109,90.31a20.88,20.88,0,0,1-1.78,1.74c-7.08,6.2-16.88,5.4-22.89-1.87-5-6.08-2.34-14.7,5-16.12,2.8-.54,5.32.36,7.71,1.73,1,.56,1.89,1.21,3.07,2"/><path class="cls-1" d="M128.29,95.14V60.56l-6.62-.34V54.13l6.65-.35c0-1.42,0-2.73,0-4,.19-8.69,5.43-13.9,14.11-13.89a52.66,52.66,0,0,1,5.85.58,2,2,0,0,1,1.92,2.34c0,1.32,0,2.64,0,4.16l-2.55-.21c-1.44-.13-2.88-.37-4.32-.36-5,0-7.62,2.62-7.84,7.64,0,1.14,0,2.27,0,3.86h15.09v6.45h-15V95a11.46,11.46,0,0,1-7.25.11"/><path class="cls-1" d="M114.92,105.4h6.75v8.48l.43.1c.42-.78.84-1.57,1.29-2.34,3.34-5.7,9.28-8.18,16.29-6.81,6.12,1.2,9.77,5.35,10.77,12a35.73,35.73,0,0,1-.32,11.28h-6.06c0-1-.12-1.89-.13-2.78,0-2,.09-4-.08-5.9-.48-5.65-3.81-9.13-10.66-8.32-4.52.53-7.55,3.18-9.44,7.18a21.61,21.61,0,0,0-2,9.34v18.89h-6.6c-.71-2.17-1-36.5-.25-41.15"/><path class="cls-1" d="M110.47,119.08c-.22-6.08-3.51-10.58-9.28-12.8a28.64,28.64,0,0,0-7.83-1.72c-5.12-.41-10.16.23-14.66,3s-6.41,7.4-5.23,12.77H79.2c.22-.26.32-.33.34-.41a10.17,10.17,0,0,0,.29-1.52c.18-4,2.48-6.34,6.23-7a32,32,0,0,1,8-.48c7.1.5,10.53,5.38,8.93,12.73h-3c-4.66,0-9.33-.21-14,.08a29.2,29.2,0,0,0-8.41,1.81c-3.56,1.36-5.46,4.32-5.84,8.14a11.54,11.54,0,0,0,7,12,17.8,17.8,0,0,0,5.65,1.55c7,.55,13.73,0,18.39-6.39.08-.11.36-.08.85-.16v5.94h6.54a4.75,4.75,0,0,0,.37-1.14c0-8.8.25-17.61-.08-26.41m-11,18.8c-5.23,3.89-11.09,4.22-17.11,2.18a5.29,5.29,0,0,1-3.78-5.17c-.08-2.63,1-4.38,3.55-5.17a15.47,15.47,0,0,1,4.26-.73c5.18-.09,10.35-.05,15.53,0a9.5,9.5,0,0,1,1.42.24,9.57,9.57,0,0,1-3.87,8.68"/><path class="cls-1" d="M190.71,76.43c0-2.42.14-4.28,0-6.12-.86-9.55-6.23-15.43-15.38-16.79a26.51,26.51,0,0,0-5.27-.16c-8.72.52-15.19,5.78-17.59,14.2a26.29,26.29,0,0,0-.29,13.83c1.93,7.61,6.73,12.48,14.41,14.26a24,24,0,0,0,13.19-.56,20,20,0,0,0,5.73-3,12.91,12.91,0,0,0,5.17-10.65h-6.14c-3.28,7.25-8.51,10-15.67,8.27-6.15-1.46-10.06-6.6-9.78-13.26ZM159,70.81c.94-4.74,2.95-8.34,7.34-10.2A15.86,15.86,0,0,1,177,60.26a9.55,9.55,0,0,1,6.72,10.55Z"/><path class="cls-1" d="M191.7,39.2a5.72,5.72,0,0,0-1.33.12v3.79h1.37c1.43,0,2.35-.78,2.35-2,0-1.34-1-1.93-2.39-1.94"/><path class="cls-1" d="M192.51,36.3a7.45,7.45,0,0,0-7.68,7.49,7.53,7.53,0,1,0,7.68-7.49m1.9,12.33a13.86,13.86,0,0,1-.7-2.48c-.3-1.43-.86-2-2.08-2h-1.26v4.5H189V38.38a13.83,13.83,0,0,1,2.57-.22,4.28,4.28,0,0,1,3,.85,2.6,2.6,0,0,1,.82,2,2.74,2.74,0,0,1-2,2.65v0a2.58,2.58,0,0,1,1.52,2.1,15.9,15.9,0,0,0,.81,2.85Z"/><polygon class="cls-2" points="42.31 170.05 35.66 170.05 35.66 175.2 42.96 175.2 42.77 176.4 34.32 176.4 34.32 163.19 42.64 163.19 42.64 164.39 35.66 164.39 35.66 168.85 42.31 168.85 42.31 170.05"/><path class="cls-2" d="M53,174.47a12.22,12.22,0,0,0,.13,1.93H51.92a5.41,5.41,0,0,1-.17-1.37,3.07,3.07,0,0,1-3,1.59,2.86,2.86,0,0,1-3.18-2.88c0-2.11,1.64-3.07,4.49-3.07h1.72v-.89c0-.9-.27-2.07-2.27-2.07-1.77,0-2,.91-2.24,1.68H46c.12-1.17.84-2.74,3.52-2.74,2.24,0,3.49.93,3.49,3.06Zm-1.24-2.83H50c-2,0-3.19.54-3.19,2a1.84,1.84,0,0,0,2,1.88c2.53,0,2.88-1.69,2.88-3.6Z"/><path class="cls-2" d="M56.94,169.46c0-1.47,0-2.19,0-2.58h1.24c0,.28,0,1,0,2a3.5,3.5,0,0,1,3.27-2.27V168c-2,.1-3.27,1.31-3.27,3.64v4.8H56.94Z"/><path class="cls-2" d="M70.37,163.19h4.85c2.49,0,4.19,1.38,4.19,3.75s-1.73,3.85-4.31,3.85H71.74v5.61H70.37Zm1.37,6.42h3.38c2,0,2.88-1,2.88-2.63a2.5,2.5,0,0,0-2.81-2.61H71.74Z"/><path class="cls-2" d="M82.34,169.46c0-1.47,0-2.19,0-2.58h1.24c0,.28,0,1,0,2a3.5,3.5,0,0,1,3.26-2.27V168c-2,.1-3.26,1.31-3.26,3.64v4.8H82.34Z"/><path class="cls-2" d="M97.44,171.62c0,2.69-1.52,5-4.39,5-2.64,0-4.26-2.11-4.26-5s1.55-5,4.36-5c2.58,0,4.29,2,4.29,5m-7.33,0c0,2.18,1.13,3.87,3,3.87s3-1.58,3-3.87-1.06-3.88-3-3.88-3,1.64-3,3.88"/><path class="cls-2" d="M99.3,166.88H101V164h1.27v2.9h2.19V168h-2.19v5.91c0,1,.23,1.54,1.11,1.54a3.25,3.25,0,0,0,.92-.1v1a3.84,3.84,0,0,1-1.29.17c-1.34,0-2-.68-2-2.23V168H99.3Z"/><path class="cls-2" d="M107.72,171.83c0,2.22,1.13,3.68,2.86,3.68a2.45,2.45,0,0,0,2.54-1.65h1.29a3.76,3.76,0,0,1-3.87,2.76c-2.94,0-4.11-2.46-4.11-4.9,0-2.77,1.39-5.07,4.22-5.07,3,0,4,2.5,4,4.4,0,.28,0,.53,0,.78Zm5.59-1c0-1.74-.93-3.12-2.69-3.12s-2.65,1.28-2.84,3.12Z"/><path class="cls-2" d="M125.14,173.55a3.71,3.71,0,0,1-3.81,3.07c-2.48,0-4.15-1.82-4.15-4.94,0-2.64,1.45-5,4.27-5a3.47,3.47,0,0,1,3.69,3.11h-1.27a2.38,2.38,0,0,0-2.44-2c-1.87,0-2.93,1.59-2.93,3.87s1,3.88,2.85,3.88a2.48,2.48,0,0,0,2.51-2Z"/><path class="cls-2" d="M127.06,166.88h1.72V164h1.27v2.9h2.19V168h-2.19v5.91c0,1,.22,1.54,1.11,1.54a3.28,3.28,0,0,0,.92-.1v1a3.87,3.87,0,0,1-1.29.17c-1.34,0-2-.68-2-2.23V168h-1.72Z"/><path class="cls-2" d="M135,162.48h1.26v1.94H135Zm0,4.4h1.26v9.52H135Z"/><path class="cls-2" d="M148.15,171.62c0,2.69-1.52,5-4.39,5-2.64,0-4.26-2.11-4.26-5s1.55-5,4.36-5c2.58,0,4.29,2,4.29,5m-7.33,0c0,2.18,1.14,3.87,3,3.87s3-1.58,3-3.87-1.06-3.88-3-3.88-3,1.64-3,3.88"/><path class="cls-2" d="M151.34,169.28c0-.84,0-1.65,0-2.4h1.23c0,.29.06,1.42.05,1.69a3.05,3.05,0,0,1,3.09-1.92c1.73,0,3.19,1,3.19,3.6v6.15h-1.27v-6c0-1.58-.64-2.62-2.2-2.62-2,0-2.81,1.65-2.81,3.65v4.94h-1.27Z"/><path class="cls-2" d="M170.48,172.1l-1.56,4.3h-1.36l4.78-13.21H174l5,13.21h-1.45l-1.61-4.3Zm5-1.19c-1.37-3.72-2.1-5.59-2.37-6.53h0c-.32,1.06-1.14,3.35-2.25,6.53Z"/><path class="cls-2" d="M181.85,162.48h1.27v1.94h-1.27Zm0,4.4h1.27v9.52h-1.27Z"/><path class="cls-2" d="M194.66,162.48v11.2c0,.9,0,1.78,0,2.72h-1.22c0-.24-.06-1.06-.07-1.49a3,3,0,0,1-3.1,1.71c-2.46,0-4-2-4-4.88s1.62-5.09,4.23-5.09c1.81,0,2.56.76,2.83,1.33v-5.5Zm-7,9.22c0,2.47,1.23,3.8,2.81,3.8,2.38,0,3-1.69,3-4.05s-.53-3.68-2.83-3.68c-1.79,0-3,1.43-3,3.93"/><rect class="cls-3" x="-105.11" y="-7.13" width="1366" height="768"/></svg>